HIERARCHY
ROOT Hips
{
  OFFSET 265.287 66.7526 -254.649
  CHANNELS 6 Xposition Yposition Zposition Zrotation Xrotation Yrotation
  JOINT LeftUpLeg
  {
    OFFSET 8.64259 1.95398 -2.38835
    CHANNELS 3 Zrotation Xrotation Yrotation
    JOINT LeftLeg
    {
      OFFSET 43.7702 0 0
      CHANNELS 3 Zrotation Xrotation Yrotation
      JOINT LeftFoot
      {
        OFFSET 40.6238 0 0
        CHANNELS 3 Zrotation Xrotation Yrotation
        JOINT LeftToeBase
        {
          OFFSET 12.7242 0 0
          CHANNELS 3 Zrotation Xrotation Yrotation
          End Site
          {
            OFFSET 0 0 0
          }
        }
      }
    }
  }
  JOINT RightUpLeg
  {
    OFFSET -8.2249 1.95398 -2.59336
    CHANNELS 3 Zrotation Xrotation Yrotation
    JOINT RightLeg
    {
      OFFSET 43.5653 0 0
      CHANNELS 3 Zrotation Xrotation Yrotation
      JOINT RightFoot
      {
        OFFSET 40.6238 0 0
        CHANNELS 3 Zrotation Xrotation Yrotation
        JOINT RightToeBase
        {
          OFFSET 12.7242 0 0
          CHANNELS 3 Zrotation Xrotation Yrotation
          End Site
          {
            OFFSET 0 0 0
          }
        }
      }
    }
  }
  JOINT Spine
  {
    OFFSET 0.165834 0.87714 6.61349
    CHANNELS 3 Zrotation Xrotation Yrotation
    JOINT Spine1
    {
      OFFSET 7.38963 1.71661e-005 0
      CHANNELS 3 Zrotation Xrotation Yrotation
      JOINT Spine2
      {
        OFFSET 11.9445 1.14441e-005 0
        CHANNELS 3 Zrotation Xrotation Yrotation
        JOINT Spine3
        {
          OFFSET 14.7254 4.19617e-005 0
          CHANNELS 3 Zrotation Xrotation Yrotation
          JOINT Spine4
          {
            OFFSET 10.9679 0 0
            CHANNELS 3 Zrotation Xrotation Yrotation
            JOINT RightShoulder
            {
              OFFSET 2.46616 -1.6653 3.69651
              CHANNELS 3 Zrotation Xrotation Yrotation
              JOINT RightArm
              {
                OFFSET 13.0012 0 0
                CHANNELS 3 Zrotation Xrotation Yrotation
                JOINT RightForeArm
                {
                  OFFSET 28.7848 1.52588e-005 0
                  CHANNELS 3 Zrotation Xrotation Yrotation
                  JOINT RightHand
                  {
                    OFFSET 26.5688 1.52588e-005 0
                    CHANNELS 3 Zrotation Xrotation Yrotation
                    End Site
                    {
                      OFFSET 0 0 0
                    }
                  }
                }
              }
            }
            JOINT LeftShoulder
            {
              OFFSET 2.38034 -1.29275 -3.7523
              CHANNELS 3 Zrotation Xrotation Yrotation
              JOINT LeftArm
              {
                OFFSET 16.3182 6.10351e-005 0
                CHANNELS 3 Zrotation Xrotation Yrotation
                JOINT LeftForeArm
                {
                  OFFSET 27.0901 0 0
                  CHANNELS 3 Zrotation Xrotation Yrotation
                  JOINT LeftHand
                  {
                    OFFSET 24.5451 1.52588e-005 0
                    CHANNELS 3 Zrotation Xrotation Yrotation
                    End Site
                    {
                      OFFSET 0 0 0
                    }
                  }
                }
              }
            }
            JOINT Neck
            {
              OFFSET 5.0226 -0.0266342 0
              CHANNELS 3 Zrotation Xrotation Yrotation
              JOINT Head
              {
                OFFSET 6.69364 2.86102e-005 0
                CHANNELS 3 Zrotation Xrotation Yrotation
                End Site
                {
                  OFFSET 0 0 0
                }
              }
            }
          }
        }
      }
    }
  }
}
MOTION
Frames:	9
Frame Time:	0.0416667
-138.144 91.662 130.996 96.1936 48.8048 84.0345 -179.644 16.6349 85.0152 -36.1603 22.7995 5.73061 64.0348 3.79705 16.7051 39.5872 -3.30544 -3.1045 171.752 15.0138 83.6973 -90.9428 -17.3106 -3.20735 41.5012 8.58258 16.4896 54.4848 -3.10605 5.26536 0.217483 8.24596 -89.7459 10.382 0.549735 0.458479 -1.28894 0.569407 0.433825 -23.824 0.386538 0.602503 -3.81141 0.386541 0.602498 99.2645 -56.3098 -86.3588 25.665 -4.01209 -4.62478 1.6786 -13.1695 -8.73941 -8.81476 -0.406762 0.291122 -88.8059 -52.7525 80.7979 -16.3944 11.54 -23.0123 0.610675 18.4859 -4.43391 7.65266 -0.0917811 -4.53054 0.585161 -0.529412 -2.88191 -6.1903 -0.339805 9.58897 
-133.771 92.5112 126.038 98.3816 49.0867 85.0619 -178.142 9.94065 87.7792 -35.2786 24.9091 6.19124 67.244 6.18928 18.6461 39.8336 -3.38792 -3.18674 170.53 26.3452 88.9788 -100.881 -15.1514 -2.97678 48.0013 5.55574 14.1795 55.7935 -3.04733 6.81179 0.00471339 8.08887 -90.0471 10.6963 -0.0122825 -0.0920932 -0.974607 -0.0163138 -0.0914755 -23.5098 0.0159607 -0.0915284 -3.49714 0.0159666 -0.0915263 99.0352 -56.312 -86.6897 26.8319 -2.81443 -2.60596 1.6915 -10.0704 -8.07439 -11.3761 -0.448375 -0.629714 -88.2941 -51.7532 81.3677 -15.5435 12.5414 -25.0419 3.57104 13.4443 -13.5957 11.2543 -0.267257 -5.7816 -1.84644 0.474087 -4.55609 -7.51539 0.677545 9.97859 
-129.674 93.0725 121.416 100.068 49.0423 85.2696 -176.624 3.19828 89.9229 -32.4926 26.9123 6.14459 68.8322 7.83823 19.8281 40.6813 -3.67424 -2.39898 169.955 33.2353 91.6007 -92.1084 -12.9852 -2.09754 56.7401 2.96241 18.6598 49.7911 -2.62572 5.57204 -0.228484 8.03049 -90.2174 10.8119 -0.555303 -0.380671 -0.85899 -0.571508 -0.355859 -23.3943 -0.415231 -0.529957 -3.38166 -0.41522 -0.529958 98.8697 -56.0298 -86.9443 27.5248 -1.25901 -0.909029 1.14626 -8.85899 -7.79391 -11.669 -0.485974 -0.352767 -87.8392 -51.737 82.0355 -13.1624 13.3638 -27.207 6.40287 11.7694 -22.5548 11.3841 -0.494529 -7.71815 -1.70225 1.49053 -5.82207 -8.16082 1.74461 11.2172 
-125.679 93.7886 117.106 100.397 50.2008 86.4707 -174.632 -1.72749 93.1183 -29.1328 30.6186 6.2316 67.9083 7.84742 19.4863 42.3023 -4.17614 -0.224079 170.526 32.7114 92.3014 -64.6485 -12.9496 1.00932 59.0183 2.65209 17.2212 51.7284 -3.03686 3.12993 -0.335723 7.98548 -90.4314 10.8989 -0.867859 -0.776511 -0.771954 -0.90119 -0.73757 -23.3065 -0.594385 -1.00143 -3.29381 -0.594366 -1.00143 99.1788 -56.9031 -86.4528 26.6414 -0.0116278 0.013361 0.977293 -6.50426 -7.12078 -11.9972 -0.519575 -0.151749 -87.8594 -52.4495 82.1268 -10.676 14.3994 -31.0467 10.7381 14.5856 -30.007 9.42446 -0.171603 -5.17027 -1.15356 1.37407 -6.07029 -7.55095 1.73103 11.6576 
-121.393 94.1732 112.726 99.0744 52.6578 85.4906 -174.335 -6.00713 92.3857 -25.5701 31.6658 6.05154 65.0131 5.64712 15.3202 45.3901 -5.08675 0.829807 175.128 25.8906 88.3185 -26.4051 -7.91059 1.28524 52.4021 5.1064 14.4732 40.1625 -1.44565 -2.3797 -0.480265 7.8218 -90.2623 11.2292 -1.07785 -0.417197 -0.441375 -1.09518 -0.369355 -22.9788 -0.902641 -0.72187 -2.96614 -0.902645 -0.72187 99.423 -56.6772 -86.1127 26.7752 -0.0142652 1.53798 1.21535 -6.12251 -6.07652 -11.7669 -0.460435 -0.687305 -88.01 -51.8609 81.8043 -11.2783 15.3553 -34.4935 13.014 16.0727 -32.5085 7.76506 -0.295948 -6.80349 -0.511702 0.60744 -6.22803 -8.06549 0.995795 11.1249 
-116.194 93.7793 107.917 100.428 55.4641 83.7715 -174.348 -9.7252 93.5703 -27.2702 32.4662 8.04652 64.751 4.58368 10.0064 47.7568 -5.677 2.5088 177.172 19.5392 87.1083 -8.52365 0.260543 -0.198027 52.6236 5.36314 19.4846 36.2183 -0.860788 -4.58253 -0.713752 7.82691 -90.2717 11.2181 -1.54688 -0.389391 -0.451999 -1.56254 -0.320909 -22.9927 -1.35833 -0.83636 -2.98004 -1.35835 -0.836361 100.283 -56.1248 -84.8948 27.6134 0.995096 3.19997 0.428111 -6.72589 -6.80542 -10.2571 -0.337002 -1.39026 -87.8602 -50.7768 81.8389 -12.5141 16.793 -35.012 10.5295 12.6293 -31.9469 6.00575 -0.450313 -9.24466 -0.141894 0.315686 -6.26117 -8.50865 0.6839 11.1975 
-109.624 92.9431 102.442 101.501 56.4394 83.0798 -176.006 -10.9378 95.1025 -33.9351 31.719 10.0964 58.2135 0.687158 2.95801 55.4894 -7.89213 2.44876 177.003 19.6496 88.6021 -15.4969 -5.16487 0.284879 49.7799 6.94893 15.098 32.2725 -0.173224 -3.97512 -0.9496 7.80194 -90.4906 11.2636 -2.11814 -0.767059 -0.405791 -2.14985 -0.673064 -22.9497 -1.7897 -1.36832 -2.93704 -1.78969 -1.36832 100.944 -56.2223 -83.9359 26.654 1.57706 4.10662 0.305414 -7.28355 -7.57991 -12.1992 -0.585143 0.405302 -87.4846 -49.6964 82.2157 -15.3925 19.0715 -31.3443 0.170327 0.330859 -23.6291 5.23718 -0.572241 -11.6038 0.650492 0.998756 -5.13292 -9.76227 1.06681 12.0711 
-103.056 92.1344 96.7806 100.844 55.1529 85.5155 -178.938 -6.18318 97.3152 -44.3809 23.7115 8.78612 42.4261 -4.73908 -7.964 58.0378 -9.95929 -5.33336 177.138 22.0923 91.5908 -28.7328 -9.79005 0.91214 52.8713 6.72684 11.1742 32.5857 -0.545647 0.0909912 -0.947211 7.71801 -90.8883 11.4208 -2.29937 -1.53714 -0.248916 -2.36477 -1.43443 -22.7871 -1.73119 -2.15707 -2.77443 -1.73118 -2.15708 100.67 -55.9308 -84.3386 26.1658 2.49638 4.03918 -0.017049 -7.7956 -7.12705 -12.2092 -0.772619 2.23808 -87.4193 -50.2821 82.4137 -20.2235 18.4613 -23.9356 -0.342764 3.15752 -15.7772 2.02241 -0.35833 -11.5639 1.33063 1.90591 -4.53549 -10.1104 1.84085 12.5405 
-97.1897 92.3759 91.6421 101.485 54.1779 85.4074 176.388 3.15059 95.1788 -61.5056 21.0059 7.3718 43.9904 -4.39342 -1.19094 56.2956 -7.76202 4.69449 176.793 19.415 93.0381 -35.2357 -7.6119 1.10392 61.275 3.9905 12.9853 27.5711 0.32385 -1.20338 -0.685522 7.8198 -91.0545 11.2142 -1.85451 -1.91416 -0.456713 -1.93695 -1.8307 -22.9856 -1.19368 -2.38283 -2.97291 -1.19368 -2.38283 100.663 -55.497 -84.3594 26.1635 1.97541 1.87106 0.328222 -6.79618 -7.05278 -13.4937 -0.868868 2.38109 -87.6073 -51.0869 82.2682 -23.9772 16.4748 -21.3111 -0.39372 16.73 -4.84636 5.63592 -0.313434 -7.57175 2.41738 1.40383 -4.58575 -9.7314 1.50148 11.2624 
